<?xml version="1.0" standalone="yes"?>

<svg version="1.1" viewBox="0.0 0.0 1280.0 960.0" fill="none" stroke="none" stroke-linecap="square" stroke-miterlimit="10" xmlns="http://www.w3.org/2000/svg" xmlns:xlink="http://www.w3.org/1999/xlink"><clipPath id="p.0"><path d="m0 0l1280.0 0l0 960.0l-1280.0 0l0 -960.0z" clip-rule="nonzero"></path></clipPath><g clip-path="url(#p.0)"><path fill="#000000" fill-opacity="0.0" d="m0 0l1280.0 0l0 960.0l-1280.0 0z" fill-rule="evenodd"></path><path fill="#65598c" d="m296.0 152.0l717.0079 0l0 717.0079l-717.0079 0z" fill-rule="evenodd"></path><path fill="#000000" fill-opacity="0.0" d="m346.40945 177.48032l616.18896 0l0 666.04724l-616.18896 0z" fill-rule="evenodd"></path><path fill="#f3f3f3" d="m634.32904 511.87094q0 25.515594 -5.609375 50.37497q-5.59375 24.84375 -14.703125 48.40625q-9.09375 23.546875 -20.8125 45.015625q-11.71875 21.46875 -24.078125 40.21875q-12.359375 18.734375 -24.078125 33.953125q-11.703125 15.21875 -21.078125 26.15625l-93.68747 0l23.953125 -23.9375q0.25 -0.265625 8.578125 -9.25q8.328125 -8.96875 20.8125 -24.578125q12.5 -15.625 26.9375 -36.703125q14.4530945 -21.078125 26.81247 -45.40625q12.359375 -24.34375 20.5625 -51.015625q8.203125 -26.6875 8.203125 -53.234344q0 -26.53125 -8.203125 -53.203125q-8.203125 -26.6875 -20.5625 -51.015625q-12.359375 -24.34375 -26.81247 -45.421875q-14.4375 -21.078125 -26.9375 -36.6875q-12.484375 -15.625 -20.8125 -24.59375q-8.328125 -8.984375 -8.578125 -9.25l-23.953125 -23.9375l93.68747 0q9.375 10.921875 21.078125 26.15625q11.71875 15.21875 24.078125 33.96875q12.359375 18.734375 24.078125 40.203125q11.71875 21.46875 20.8125 45.03125q9.109375 23.546875 14.703125 48.40625q5.609375 24.84375 5.609375 50.34375zm244.25299 -244.10938l-23.9375 23.9375q-0.265625 0.265625 -8.734375 9.25q-8.453125 8.96875 -20.953125 24.59375q-12.484375 15.609375 -26.921875 36.6875q-14.4375 21.078125 -26.9375 45.421875q-12.484375 24.328125 -20.6875 51.015625q-8.203125 26.671875 -8.203125 53.203125q0 26.81247 8.203125 53.359344q8.203125 26.546875 20.6875 50.890625q12.5 24.328125 26.9375 45.40625q14.4375 21.078125 26.921875 36.703125q12.5 15.609375 20.953125 24.578125q8.46875 8.984375 8.734375 9.25l23.9375 23.9375l-93.6875 0q-9.375 -10.9375 -21.21875 -26.15625q-11.84375 -15.21875 -24.078125 -33.953125q-12.21875 -18.75 -23.9375 -40.21875q-11.703125 -21.46875 -20.8125 -45.015625q-9.109375 -23.5625 -14.703125 -48.40625q-5.59375 -24.859375 -5.59375 -50.37497q0 -25.5 5.59375 -50.34375q5.59375 -24.859375 14.703125 -48.40625q9.109375 -23.5625 20.8125 -45.03125q11.71875 -21.46875 23.9375 -40.203125q12.234375 -18.75 24.078125 -33.96875q11.84375 -15.234375 21.21875 -26.15625l93.6875 0z" fill-rule="nonzero"></path></g></svg>

