<?xml version="1.0" encoding="UTF-8" standalone="no"?>
<!DOCTYPE svg PUBLIC "-//W3C//DTD SVG 1.1//EN" "http://www.w3.org/Graphics/SVG/1.1/DTD/svg11.dtd">
<svg width="100%" height="100%" viewBox="0 0 3600 960" version="1.1" xmlns="http://www.w3.org/2000/svg" xmlns:xlink="http://www.w3.org/1999/xlink" xml:space="preserve" xmlns:serif="http://www.serif.com/" style="fill-rule:evenodd;clip-rule:evenodd;stroke-linejoin:round;stroke-miterlimit:2;">
    <g id="Converted-Text" serif:id="Converted Text">
        <g transform="matrix(3.00011,0,0,3.00011,1547.98,-875.904)">
            <g transform="matrix(288,0,0,288,131.322,563.41)">
                <path d="M0.649,-0.286L0.249,-0.286L0.249,-0.414L0.649,-0.414L0.649,-0.286ZM0.707,-0L0.249,-0C0.231,-0 0.212,-0.003 0.191,-0.009C0.17,-0.015 0.151,-0.026 0.133,-0.04C0.115,-0.054 0.101,-0.072 0.089,-0.095C0.077,-0.118 0.071,-0.145 0.071,-0.178L0.071,-0.636C0.071,-0.645 0.072,-0.653 0.076,-0.661C0.079,-0.669 0.083,-0.676 0.089,-0.682C0.095,-0.688 0.102,-0.692 0.109,-0.695C0.117,-0.699 0.126,-0.7 0.135,-0.7L0.707,-0.7L0.707,-0.573L0.198,-0.573L0.198,-0.178C0.198,-0.162 0.202,-0.149 0.211,-0.14C0.22,-0.131 0.233,-0.127 0.25,-0.127L0.707,-0.127L0.707,-0Z" style="fill:rgb(101,89,140);fill-rule:nonzero;"/>
            </g>
            <g transform="matrix(288,0,0,288,392.069,563.41)">
                <path d="M0.717,-0L0.138,-0C0.129,-0 0.12,-0.002 0.112,-0.005C0.104,-0.008 0.098,-0.013 0.092,-0.018C0.086,-0.024 0.082,-0.031 0.079,-0.039C0.075,-0.046 0.074,-0.055 0.074,-0.064L0.074,-0.7L0.201,-0.7L0.201,-0.127L0.717,-0.127L0.717,-0Z" style="fill:rgb(101,89,140);fill-rule:nonzero;"/>
            </g>
        </g>
        <g transform="matrix(864.032,0,0,864.032,161.785,814.388)">
            <path d="M0.761,-0L0.634,-0L0.634,-0.172L0.188,-0.172L0.188,-0L0.061,-0L0.061,-0.35C0.061,-0.401 0.069,-0.448 0.087,-0.491C0.104,-0.534 0.129,-0.571 0.16,-0.602C0.191,-0.633 0.228,-0.657 0.271,-0.674C0.314,-0.692 0.36,-0.7 0.411,-0.7L0.697,-0.7C0.706,-0.7 0.714,-0.699 0.722,-0.695C0.729,-0.692 0.736,-0.688 0.742,-0.682C0.748,-0.676 0.753,-0.669 0.756,-0.661C0.759,-0.653 0.761,-0.645 0.761,-0.636L0.761,-0ZM0.188,-0.299L0.634,-0.299L0.634,-0.573L0.411,-0.573C0.407,-0.573 0.399,-0.573 0.386,-0.572C0.373,-0.57 0.359,-0.568 0.343,-0.563C0.326,-0.558 0.309,-0.551 0.291,-0.542C0.272,-0.533 0.256,-0.52 0.24,-0.503C0.225,-0.486 0.212,-0.466 0.202,-0.441C0.192,-0.416 0.188,-0.386 0.188,-0.35L0.188,-0.299Z" style="fill:rgb(101,89,140);fill-rule:nonzero;"/>
        </g>
    </g>
    <g transform="matrix(1,0,0,1,860,0)">
        <g transform="matrix(1,0,0,1,-107,0)">
            <rect x="0" y="0" width="1280" height="960" style="fill-opacity:0;"/>
        </g>
        <g transform="matrix(1,0,0,1,-107,0)">
            <rect x="296" y="152" width="717.008" height="717.008" style="fill:rgb(101,89,140);"/>
        </g>
        <g transform="matrix(1,0,0,1,-107,0)">
            <rect x="346.409" y="177.48" width="616.189" height="666.047" style="fill-opacity:0;"/>
        </g>
        <g id="v2-Haskell--X---light-" serif:id="v2 Haskell &quot;X&quot; (light)" transform="matrix(1.4329,0,0,1.4329,335.367,267.798)">
            <g transform="matrix(1,0,0,1,-74.6736,0)">
                <path d="M0,340.157L113.386,170.079L0,0L85.039,0L198.425,170.079L85.039,340.157" style="fill:rgb(169,161,196);fill-rule:nonzero;"/>
            </g>
            <g>
                <g transform="matrix(1,0,0,-1,-74.6736,340.157)">
                    <path d="M113.386,340.157L226.772,170.079L113.386,0L198.425,0L425.197,340.157L340.157,340.157L269.291,233.858L198.425,340.157" style="fill:rgb(212,208,225);fill-rule:nonzero;"/>
                </g>
                <g transform="matrix(1,0,0,1,-74.6736,0)">
                    <path d="M113.386,340.157L226.772,170.079L113.386,0L198.425,0L425.197,340.157L340.157,340.157L269.291,233.858L198.425,340.157" style="fill:white;fill-rule:nonzero;"/>
                </g>
            </g>
        </g>
    </g>
</svg>
